# xmcd
#
# Track frame offsets: 
#        150
#        21909
#        50616
#        63794
#        84438
#        108087
#        124751
#        143120
#        164884
#        184794
#        205768
#        220169
#        240373
#        268077
#        293663
#        309916
#
# Disc length: 4469 seconds
#
# Revision: 0
# Processed by: cddbd v1.5.2PL0 Copyright (c) Steve Scherf et al.
# Submitted via: ExactAudioCopyFreeDBPlugin 1.0
#
DISCID=e0117310
DTITLE=Various Artist - While my guitar gently weeps CD1
DYEAR=1900
DGENRE=
TTITLE0=Dire Straits - Brothers in arms
TTITLE1=The Who - Who are you
TTITLE2=Fleetwood Mac - Black magic woman
TTITLE3=Peter Framton - Show me the way
TTITLE4=The Jeff Healey Bamd - While my guitar gently weeps
TTITLE5=Tommy Emmanuel - Angelina
TTITLE6=Rod Stewart - Angel
TTITLE7=Zz Top - Rough boy
TTITLE8=Silverchair - Tomorrow
TTITLE9=Grinspoon - Chemical Heart
TTITLE10=Robert Palmer - Bad case of loving you
TTITLE11=Chris Rea - The road to hell
TTITLE12=Gary Moore - Still got the blue
TTITLE13=Thin Lizzy - Still in love with you
TTITLE14=Free - Wishing well
TTITLE15=Jimmy Page and Robert Plant - Most high
EXTD=
EXTT0=
EXTT1=
EXTT2=
EXTT3=
EXTT4=
EXTT5=
EXTT6=
EXTT7=
EXTT8=
EXTT9=
EXTT10=
EXTT11=
EXTT12=
EXTT13=
EXTT14=
EXTT15=
PLAYORDER=
